<svg xmlns="http://www.w3.org/2000/svg" version="1.1" xmlns:xlink="http://www.w3.org/1999/xlink" xmlns:svgjs="http://svgjs.dev/svgjs" width="1000" height="1000" viewBox="0 0 1000 1000"><rect width="1000" height="1000" fill="#ffbe79"></rect><g transform="matrix(0.7,0,0,0.7,150.0000000000001,106.25)"><svg viewBox="0 0 320 360" data-background-color="#ffbe79" preserveAspectRatio="xMidYMid meet" height="1125" width="1000" xmlns="http://www.w3.org/2000/svg" xmlns:xlink="http://www.w3.org/1999/xlink"><g id="tight-bounds" transform="matrix(1,0,0,1,0,0)"><svg viewBox="0 0 320 360" height="360" width="320"><g><svg></svg></g><g><svg viewBox="0 0 320 360" height="360" width="320"><g><path xmlns="http://www.w3.org/2000/svg" d="M320 204.145c-0.08-8.44-5.414-15.128-5.494-23.568-0.04-8.44 5.215-18.631 5.136-27.071-2.667-8.002-9.833-12.7-12.501-20.702-2.667-8.002-0.836-19.348-3.463-27.35-5.016-6.808-13.297-9.037-18.274-15.805-5.016-6.808-6.768-18.154-11.744-24.921-6.847-4.897-15.407-4.499-22.294-9.396-6.847-4.897-12.023-15.168-18.91-20.065-8.042-2.548-16.044 0.518-24.086-2.07-8.042-2.548-16.123-10.709-24.165-13.257-8.44 0.08-15.128 5.414-23.568 5.494-8.44 0.04-18.631-5.215-27.071-5.135-8.002 2.667-12.7 9.833-20.702 12.5-8.002 2.667-19.348 0.836-27.35 3.504-6.808 5.016-9.037 13.297-15.805 18.273-6.808 5.016-18.154 6.768-24.922 11.784-4.897 6.847-4.499 15.407-9.395 22.294-4.897 6.847-15.168 12.023-20.065 18.91-2.548 8.042 0.478 16.044-2.07 24.086-2.548 8.042-10.709 16.123-13.257 24.165 0.04 8.44 5.414 15.128 5.494 23.568 0.04 8.44-5.215 18.631-5.136 27.071 2.667 8.002 9.833 12.7 12.501 20.702 2.667 8.002 0.836 19.348 3.503 27.35 5.016 6.808 13.297 9.037 18.273 15.845 5.016 6.808 6.768 18.154 11.745 24.921 6.847 4.897 15.407 4.499 22.294 9.396 6.847 4.897 12.023 15.168 18.91 20.065 8.042 2.548 16.044-0.478 24.086 2.07 8.042 2.548 16.123 10.709 24.165 13.257 8.44-0.08 15.128-5.414 23.568-5.494 8.44-0.04 18.631 5.215 27.071 5.135 8.002-2.667 12.7-9.833 20.702-12.5 8.002-2.667 19.348-0.836 27.35-3.504 6.808-5.016 9.037-13.297 15.845-18.273 6.808-5.016 18.154-6.768 24.921-11.744 4.897-6.847 4.499-15.407 9.396-22.294 4.897-6.847 15.168-12.023 20.064-18.91 2.548-8.042-0.478-16.044 2.071-24.086 2.468-8.121 10.63-16.203 13.177-24.245zM305.987 227.395c-3.623 7.126-12.501 13.456-16.164 20.582-3.623 7.126-2.03 15.088-5.653 22.215-5.653 5.653-16.044 8.918-21.737 14.57-5.653 5.653-6.569 13.735-12.261 19.388-7.126 3.623-18.034 3.503-25.161 7.166-7.126 3.623-10.51 11.028-17.636 14.651-7.922 1.234-18.233-2.229-26.156-0.996-7.922 1.234-13.416 7.246-21.299 8.48-7.922-1.234-16.641-7.763-24.563-8.997-7.922-1.274-14.969 2.747-22.891 1.473-7.126-3.623-13.456-12.54-20.582-16.163-7.126-3.623-15.088-2.03-22.255-5.654-5.653-5.653-8.918-16.044-14.571-21.736-5.653-5.653-13.735-6.609-19.387-12.262-3.623-7.126-3.503-18.034-7.166-25.161-3.623-7.126-11.028-10.51-14.651-17.636-1.234-7.922 2.229-18.233 0.995-26.156-1.274-7.922-7.246-13.416-8.479-21.298 1.274-7.922 7.763-16.641 8.997-24.564 1.234-7.922-2.747-14.969-1.473-22.891 3.623-7.126 12.54-13.456 16.163-20.582 3.623-7.126 2.03-15.088 5.653-22.254 5.653-5.653 16.044-8.918 21.737-14.571 5.653-5.653 6.609-13.735 12.262-19.388 7.126-3.623 18.034-3.503 25.16-7.166 7.126-3.623 10.51-11.028 17.637-14.651 7.922-1.234 18.233 2.229 26.155 0.996 7.922-1.234 13.416-7.246 21.299-8.48 7.922 1.234 16.641 7.763 24.564 8.997 7.922 1.274 14.969-2.747 22.891-1.473 7.126 3.623 13.456 12.54 20.582 16.163 7.126 3.623 15.088 2.03 22.254 5.654 5.653 5.653 8.918 16.044 14.571 21.736 5.653 5.653 13.735 6.609 19.388 12.262 3.623 7.126 3.503 18.034 7.166 25.161 3.623 7.126 11.028 10.51 14.65 17.636 1.274 7.922-2.229 18.233-0.995 26.156 1.234 7.922 7.246 13.416 8.48 21.298-1.234 7.922-7.763 16.641-8.997 24.564-1.234 7.922 2.747 15.009 1.473 22.931z" fill="#374151" fill-rule="nonzero" stroke="none" stroke-width="1" stroke-linecap="butt" stroke-linejoin="miter" stroke-miterlimit="10" stroke-dasharray="" stroke-dashoffset="0" font-family="none" font-weight="none" font-size="none" text-anchor="none" style="mix-blend-mode: normal" data-fill-palette-color="tertiary"></path></g><g transform="matrix(1,0,0,1,48,148.76955479025924)"><svg viewBox="0 0 224 62.46089041948156" height="62.46089041948156" width="224"><g><svg viewBox="0 0 224 62.46089041948156" height="62.46089041948156" width="224"><g><svg viewBox="0 0 224 62.46089041948156" height="62.46089041948156" width="224"><g transform="matrix(1,0,0,1,0,38.60333608588637)"><svg viewBox="0 0 224 23.857554333595186" height="23.857554333595186" width="224"><g id="textblocktransform"><svg viewBox="0 0 224 23.857554333595186" height="23.857554333595186" width="224" id="textblock"><g><svg viewBox="0 0 224 23.857554333595186" height="23.857554333595186" width="224"><g transform="matrix(1,0,0,1,0,0)"><svg width="224" viewBox="5.300000190734863 -39.900001525878906 381.8700256347656 40.68000030517578" height="23.857554333595186" data-palette-color="#374151"><path d="M26.8 0L5.3 0 5.3-34.58 12.3-34.58 12.3-5.68 27.55-5.68 26.8 0ZM57.07-11.2L39.72-11.2Q39.95-8.75 40.87-7.23 41.8-5.7 43.26-5 44.72-4.3 46.5-4.3L46.5-4.3Q48.4-4.3 50.07-4.9 51.75-5.5 53.37-6.55L53.37-6.55 56.17-2.73Q54.32-1.18 51.75-0.2 49.17 0.78 46.07 0.78L46.07 0.78Q41.72 0.78 38.77-1.01 35.82-2.8 34.31-5.95 32.8-9.1 32.8-13.23L32.8-13.23Q32.8-17.15 34.27-20.34 35.75-23.53 38.55-25.39 41.35-27.25 45.3-27.25L45.3-27.25Q48.95-27.25 51.62-25.65 54.3-24.05 55.75-21.05 57.2-18.05 57.2-13.85L57.2-13.85Q57.2-13.18 57.17-12.46 57.15-11.75 57.07-11.2L57.07-11.2ZM45.32-22.53L45.32-22.53Q42.95-22.53 41.44-20.83 39.92-19.13 39.65-15.48L39.65-15.48 50.65-15.48Q50.6-18.78 49.28-20.65 47.97-22.53 45.32-22.53ZM111.24-23.5L111.24-23.5Q111.24-25.6 110.44-26.93 109.64-28.25 108.12-28.86 106.59-29.48 104.42-29.48L104.42-29.48 100.94-29.48 100.94-17.1 104.67-17.1Q106.67-17.1 108.14-17.74 109.62-18.38 110.43-19.78 111.24-21.18 111.24-23.5ZM118.52-23.53L118.52-23.53Q118.52-19.5 116.79-16.94 115.07-14.38 112.01-13.15 108.94-11.93 104.89-11.93L104.89-11.93 100.94-11.93 100.94 0 93.94 0 93.94-34.58 104.19-34.58Q110.97-34.58 114.74-31.85 118.52-29.13 118.52-23.53ZM147.06-11.2L129.72-11.2Q129.94-8.75 130.87-7.23 131.79-5.7 133.25-5 134.72-4.3 136.49-4.3L136.49-4.3Q138.39-4.3 140.06-4.9 141.74-5.5 143.37-6.55L143.37-6.55 146.17-2.73Q144.31-1.18 141.74-0.2 139.17 0.78 136.06 0.78L136.06 0.78Q131.72 0.78 128.77-1.01 125.82-2.8 124.3-5.95 122.79-9.1 122.79-13.23L122.79-13.23Q122.79-17.15 124.27-20.34 125.74-23.53 128.54-25.39 131.34-27.25 135.29-27.25L135.29-27.25Q138.94-27.25 141.62-25.65 144.29-24.05 145.74-21.05 147.19-18.05 147.19-13.85L147.19-13.85Q147.19-13.18 147.17-12.46 147.14-11.75 147.06-11.2L147.06-11.2ZM135.31-22.53L135.31-22.53Q132.94-22.53 131.43-20.83 129.92-19.13 129.64-15.48L129.64-15.48 140.64-15.48Q140.59-18.78 139.28-20.65 137.97-22.53 135.31-22.53ZM174.61-5.83L176.94-1.48Q175.44-0.53 173.33 0.13 171.21 0.78 168.74 0.78L168.74 0.78Q163.84 0.78 161.39-1.76 158.94-4.3 158.94-8.53L158.94-8.53 158.94-21.7 153.21-21.7 153.21-26.48 158.94-26.48 158.94-32.3 165.69-33.1 165.69-26.48 174.39-26.48 173.71-21.7 165.69-21.7 165.69-8.55Q165.69-6.5 166.66-5.56 167.64-4.63 169.84-4.63L169.84-4.63Q171.26-4.63 172.45-4.96 173.64-5.3 174.61-5.83L174.61-5.83ZM185.09-26.48L199.29-26.48 199.29-4.75 206.24-4.75 206.24 0 184.84 0 184.84-4.75 192.54-4.75 192.54-21.73 185.09-21.73 185.09-26.48ZM194.96-39.9L194.96-39.9Q196.81-39.9 197.96-38.75 199.11-37.6 199.11-35.93L199.11-35.93Q199.11-34.2 197.96-33.05 196.81-31.9 194.96-31.9L194.96-31.9Q193.11-31.9 191.95-33.05 190.79-34.2 190.79-35.93L190.79-35.93Q190.79-37.6 191.95-38.75 193.11-39.9 194.96-39.9ZM234.61-5.83L236.93-1.48Q235.43-0.53 233.32 0.13 231.21 0.78 228.73 0.78L228.73 0.78Q223.83 0.78 221.38-1.76 218.93-4.3 218.93-8.53L218.93-8.53 218.93-21.7 213.21-21.7 213.21-26.48 218.93-26.48 218.93-32.3 225.68-33.1 225.68-26.48 234.38-26.48 233.71-21.7 225.68-21.7 225.68-8.55Q225.68-6.5 226.66-5.56 227.63-4.63 229.83-4.63L229.83-4.63Q231.26-4.63 232.45-4.96 233.63-5.3 234.61-5.83L234.61-5.83ZM287.88-35.35L287.88-35.35Q291.5-35.35 294-34.41 296.5-33.48 298.65-31.73L298.65-31.73 295.13-27.5Q293.63-28.73 291.88-29.39 290.13-30.05 288.1-30.05L288.1-30.05Q285.75-30.05 283.75-28.78 281.75-27.5 280.56-24.71 279.38-21.93 279.38-17.35L279.38-17.35Q279.38-12.88 280.53-10.1 281.68-7.33 283.67-6.04 285.65-4.75 288.2-4.75L288.2-4.75Q290.88-4.75 292.65-5.7 294.43-6.65 295.85-7.78L295.85-7.78 299.1-3.63Q297.28-1.83 294.53-0.53 291.78 0.78 287.85 0.78L287.85 0.78Q283.33 0.78 279.77-1.3 276.2-3.38 274.17-7.41 272.13-11.45 272.13-17.35L272.13-17.35Q272.13-23.15 274.23-27.16 276.33-31.18 279.9-33.26 283.48-35.35 287.88-35.35ZM325.23-18.15L325.23-7.05Q325.23-5.53 325.66-4.84 326.1-4.15 327.08-3.8L327.08-3.8 325.65 0.7Q323.5 0.48 321.99-0.35 320.48-1.18 319.68-2.88L319.68-2.88Q318.18-1.05 315.88-0.14 313.58 0.78 311.08 0.78L311.08 0.78Q307.03 0.78 304.64-1.54 302.25-3.85 302.25-7.53L302.25-7.53Q302.25-11.78 305.58-14.06 308.9-16.35 315-16.35L315-16.35 318.65-16.35 318.65-17.73Q318.65-20.05 317.21-21.1 315.78-22.15 313.1-22.15L313.1-22.15Q311.8-22.15 309.89-21.8 307.98-21.45 305.95-20.78L305.95-20.78 304.35-25.38Q306.88-26.33 309.46-26.79 312.05-27.25 314.15-27.25L314.15-27.25Q319.78-27.25 322.5-24.88 325.23-22.5 325.23-18.15L325.23-18.15ZM313.28-4.13L313.28-4.13Q314.78-4.13 316.29-4.95 317.8-5.78 318.65-7.3L318.65-7.3 318.65-12.38 316.13-12.38Q312.5-12.38 310.89-11.21 309.28-10.05 309.28-7.9L309.28-7.9Q309.28-6.1 310.3-5.11 311.33-4.13 313.28-4.13ZM350.42-37.77L350.42-37.77Q353.1-37.77 355.16-37.34 357.22-36.9 358.92-36.18L358.92-36.18 357-31.65Q355.65-32.2 354.21-32.45 352.77-32.7 351.32-32.7L351.32-32.7Q348.82-32.7 347.7-31.78 346.57-30.85 346.57-28.8L346.57-28.8 346.57-24.7 355.32-24.7 354.57-19.9 346.57-19.9 346.57 0 339.87 0 339.87-19.9 334.07-19.9 334.07-24.7 339.87-24.7 339.87-28.98Q339.87-31.55 341.12-33.52 342.37-35.5 344.74-36.64 347.1-37.77 350.42-37.77ZM387.05-11.2L369.7-11.2Q369.92-8.75 370.85-7.23 371.77-5.7 373.23-5 374.7-4.3 376.47-4.3L376.47-4.3Q378.37-4.3 380.05-4.9 381.72-5.5 383.35-6.55L383.35-6.55 386.15-2.73Q384.3-1.18 381.72-0.2 379.15 0.78 376.05 0.78L376.05 0.78Q371.7 0.78 368.75-1.01 365.8-2.8 364.28-5.95 362.77-9.1 362.77-13.23L362.77-13.23Q362.77-17.15 364.25-20.34 365.72-23.53 368.52-25.39 371.32-27.25 375.27-27.25L375.27-27.25Q378.92-27.25 381.6-25.65 384.27-24.05 385.72-21.05 387.17-18.05 387.17-13.85L387.17-13.85Q387.17-13.18 387.15-12.46 387.12-11.75 387.05-11.2L387.05-11.2ZM375.3-22.53L375.3-22.53Q372.92-22.53 371.41-20.83 369.9-19.13 369.62-15.48L369.62-15.48 380.62-15.48Q380.57-18.78 379.26-20.65 377.95-22.53 375.3-22.53Z" opacity="1" transform="matrix(1,0,0,1,0,0)" fill="#374151" class="undefined-text-0" data-fill-palette-color="primary" id="text-0"></path></svg></g></svg></g></svg></g></svg></g><g transform="matrix(1,0,0,1,93.59906705058985,0)"><svg viewBox="0 0 36.801865898820296 32.97114008902855" height="32.97114008902855" width="36.801865898820296"><g><svg xmlns="http://www.w3.org/2000/svg" xmlns:xlink="http://www.w3.org/1999/xlink" version="1.1" x="0" y="0" viewBox="0.9850000143051147 6.086999893188477 98.02999877929688 87.82600402832031" enable-background="new 0 0 100 100" xml:space="preserve" height="32.97114008902855" width="36.801865898820296" class="icon-icon-0" data-fill-palette-color="accent" id="icon-0"><path d="M50 6.087C22.93 6.087 0.985 25.748 0.985 50 0.985 74.253 22.93 93.913 50 93.913c27.07 0 49.015-19.66 49.015-43.913C99.015 25.748 77.07 6.087 50 6.087zM74.833 69.08c-32.125 19.166-60.851-0.667-66.379-6.454 14.492 11.331 37.288 14.851 56.379 6.787C76.146 64.037 82.172 56.755 85 47.079c2.829-10.751-0.536-20.965-11.143-27.954-9.899-6.451-22.628-8.601-35.355-5.376-9.899 3.226-17.678 9.139-20.506 17.74-3.535 9.139 2.829 18.277 13.435 23.115 10.606 3.763 25.456 2.15 31.113-6.45 3.535-5.914 2.121-13.44-5.657-17.203-3.535-1.613-8.303-1.955-10.86 0.174-3.521 2.932 1.89 0.361 5.874 2.206 2.517 1.165 5.6 3.165 4.986 8.372-0.772 6.559-11.313 9.677-18.385 7.526-7.778-2.688-11.314-8.601-10.606-14.515 1.414-6.451 7.778-11.289 15.557-12.902 13.435-2.688 25.455 4.301 29.698 13.978 3.535 9.138-2.121 17.739-12.021 23.115-8.484 4.301-18.385 5.376-27.577 2.688-13.435-3.763-22.627-12.901-23.334-24.19C9.511 22.888 22.238 12.137 39.916 8.374c19.799-3.225 39.598 4.301 48.083 18.277C95.777 41.166 91.609 59.071 74.833 69.08z" fill="#374151" data-fill-palette-color="accent"></path></svg></g></svg></g><g></g></svg></g></svg></g></svg></g></svg></g><defs></defs></svg><rect width="320" height="360" fill="none" stroke="none" visibility="hidden"></rect></g></svg></g></svg>